<?xml version="1.0" encoding="utf-8"?>
<!-- Generator: Adobe Illustrator 21.1.0, SVG Export Plug-In . SVG Version: 6.00 Build 0)  -->
<svg version="1.1" id="Warstwa_1" xmlns="http://www.w3.org/2000/svg" xmlns:xlink="http://www.w3.org/1999/xlink" x="0px" y="0px"
	 viewBox="0 0 209.8 76.7" style="enable-background:new 0 0 209.8 76.7;" xml:space="preserve">
<style type="text/css">
	.st0{fill:#CA2027;}
	.st1{fill:#8AC53F;}
	.st2{fill:#2AA7DF;}
</style>
<g>
	<path class="st0" d="M131.6,53.4c-3-0.5-5,2.2-5.5,4.7c-0.6,3.1,0.7,8,4.6,8.7c3,0.5,5-2.2,5.5-4.7C136.8,58.9,135.4,54,131.6,53.4
		z"/>
	<path class="st0" d="M114,46.7c0.4-2.2-0.3-4.6-2.9-5c-3.7-0.6-7.4,3.3-8,6.5c-0.4,2.2,0.3,4.6,2.9,5.1
		C109.7,53.9,113.3,49.9,114,46.7z"/>
	<path class="st0" d="M118.4,51.3c-3.8-0.6-7,3.5-7.6,6.6c-0.5,2.5,0.3,5.7,3.3,6.2c3.8,0.6,7-3.5,7.6-6.6
		C122.2,55,121.5,51.8,118.4,51.3z"/>
	<path class="st0" d="M142.4,47.5c-2.6-0.4-4.2,1.6-4.6,3.8c-0.6,3.2,1.2,8.1,5,8.7c2.6,0.4,4.2-1.6,4.7-3.8
		C148,53,146.2,48.1,142.4,47.5z"/>
	<path class="st0" d="M135.9,45.5c1.6-1.5,3.4-3.6,4.6-5.5c0.6-0.9,1.2-1.9,1.6-2.9c0.5-1.1,0.9-2.1,1.2-3.2
		c0.3-1.2,0.5-2.3,0.6-3.4c0-1.3,0-2.5-0.3-3.6c-0.3-1.4-0.8-2.7-1.6-3.7c-0.5-0.6-1-1.2-1.5-1.7c-0.6-0.5-1.3-1-2.1-1.3
		c-0.7-0.3-1.6-0.5-2.5-0.6c-0.8-0.1-1.6,0-2.5,0.1c-1.5,0.3-2.6,0.8-3.8,1.5c-0.8,0.5-1.6,1.1-2.3,1.7c-0.3-0.3-0.6-0.6-0.9-0.8
		c-0.4-0.3-0.8-0.6-1.2-0.9c-0.4-0.3-0.9-0.5-1.4-0.7c-0.9-0.4-2.2-0.8-3.5-0.8c-1.3-0.1-2.6,0.1-3.7,0.5c-0.6,0.2-1.2,0.5-1.7,0.8
		c-0.5,0.3-1,0.7-1.4,1.1c-0.8,0.8-1.5,1.7-1.9,2.7c-0.4,0.9-0.7,1.9-0.8,3c-0.1,0.9-0.1,1.9,0,2.8c0.1,0.9,0.3,1.7,0.7,2.6
		c0.6,1.6,1.4,3.1,2.5,4.5c0.5,0.6,1,1.3,1.7,1.9c0.6,0.6,2,1.8,2.9,2.4c1.1,0.8,2.8,1.4,4,1.2c0.5-0.1,0.8-0.3,1-0.6
		c0.9-1.1-0.9-3-2.7-5.1c-3.9-4.2-4.1-6.3-4.3-7.6l0,0c-0.3-1.9,0.7-3.8,2.2-4.3c1.9-0.7,3.5-0.1,4.9,1.6c0.2,0.2,0.3,0.5,0.5,0.7
		c0.7,0.9,1.3,1.9,3,2.1c1.7,0.2,2.5-0.9,3.5-2.2l0.2-0.3c0.8-1,2.6-2.6,5-1.6c2.4,1,2.7,5,1.4,8c-1.4,3.3-3.7,6.3-5.5,7.9
		c-1.7,1.6-3.7,3.2-6,4.9c-1.9,1.4-2.8,2.3-2.7,3.4c0,0.3,0.2,0.6,0.7,0.9c0.3,0.1,0.8,0.2,1.4,0.2c1.4,0,3.3-0.6,5.5-1.9
		C131.9,48.7,134.2,47.1,135.9,45.5z"/>
</g>
<path class="st1" d="M41.5,20.9v-5c0-1.4,1.4-2.6,2.9-2.6c1.6,0,2.9,1.1,2.9,2.6v5h2.2c1.2,0,2.1,1,2.1,2.3c0,1.2-0.9,2.2-2.1,2.3
	h-2.2v12.3c0,1.4-1.3,2.6-2.9,2.6c-1.5,0-2.8-1.2-2.9-2.6V25.4H40c-1.1,0-2.1-1.1-2.1-2.3c0-1.2,0.9-2.3,2.1-2.3H41.5z"/>
<g>
	<path class="st1" d="M82.7,16.6c2,0,3.5-1.5,3.5-3.4c0-1.9-1.6-3.3-3.5-3.3c-1.9,0-3.6,1.4-3.6,3.3C79.1,15.1,80.7,16.6,82.7,16.6z
		"/>
	<path class="st1" d="M82.6,20.1c-1.5,0-2.8,1.2-2.9,2.6v8.9V32v3.5v1.9c0,1.4-0.4,3-2.5,3h-0.1c-1.4,0-2.7,1-2.7,2.6
		c0,1.5,1.2,2.6,2.7,2.6h1.2c5.4,0,7.2-3.3,7.2-8.4v-1.6v-0.1V32v-0.4v-8.9C85.5,21.2,84.2,20.1,82.6,20.1z"/>
</g>
<path class="st1" d="M104.9,38.3c-1.9,1.3-4.4,1.7-6.6,1.7c-5.5,0-10-4-10-10c0-6.1,4.5-9.9,10-9.9c5.5,0,9.8,4,9.8,10.1
	c0,1-0.9,1.8-1.8,1.8H94c0.3,2.2,2.7,3.2,4.7,3.2c1.1,0,2.1-0.1,3.3-0.9c1.3-0.9,2.8-0.7,3.6,0.3C106.7,35.7,106.3,37.5,104.9,38.3z
	 M102.4,28.3c-0.3-2.3-1.9-3.5-4-3.5s-3.8,1.1-4.3,3.5H102.4z"/>
<path class="st1" d="M154,47.6c-0.5,1.3-1.9,2-3.6,1.6c-1.4-0.3-2.2-2-1.6-3.5l3.2-8l-6-13.9c-0.5-1.5,0.3-3,1.7-3.4
	c1.8-0.5,3.1,0.4,3.6,1.6l3.6,9.4l3.7-9.4c0.5-1.3,1.8-2.1,3.6-1.6c1.4,0.4,2.2,1.9,1.7,3.4L154,47.6z"/>
<path class="st1" d="M37,30c0-6.1-4.5-9.9-10.1-9.9S16.8,23.9,16.8,30c0,6,4.5,10,10.1,10c1.8,0,3.4-0.4,4.8-1.1
	c0.5,0.7,1.4,1.2,2.4,1.2c1.6,0,2.9-1.1,2.9-2.6v-7.1C37,30.3,37,30.1,37,30z M26.8,34.4c-2.3,0-4.3-1.9-4.3-4.5
	c0-2.6,2-4.4,4.3-4.4c2.3,0,4.2,1.7,4.3,4.1v0.4C31.1,32.7,29.2,34.4,26.8,34.4z"/>
<path class="st1" d="M70.6,20.2c-1.5,0-2.8,1.2-2.9,2.6v7.9c0,0,0,0,0,0c-0.4,2.1-2.1,3.6-4.2,3.6c-2.1,0-3.8-1.5-4.2-3.7
	c0,0,0,0,0,0v-1.1v-6.6c0-1.4-1.3-2.6-2.9-2.6c-1.5,0-2.8,1.2-2.9,2.6v6.6l0.1,2.7c0,0,0,0,0,0c0,0,0,0,0,0l0,0c0,0,0,0,0,0
	c1,4.6,5,7.6,9.8,7.6c1.7,0,3.3-0.4,4.7-1.1c0.5,0.7,1.4,1.1,2.4,1.1c1.6,0,2.9-1.1,2.9-2.6V22.8C73.5,21.3,72.1,20.2,70.6,20.2z"/>
<g>
	<path class="st1" d="M16.7,23.1c-0.2,1.5-1.6,2.1-2.9,2.1c-0.4,0-1,0-1.4,0c-3.2,0-4.3,2.5-4.4,7.4v4.8c0,1.5-1.3,2.6-2.9,2.6
		c-1.5,0-2.9-1.2-2.9-2.6V22.6c0-1.4,1.4-2.6,2.9-2.6C6.7,20,8,21.2,8,22.6v2.1c1.1-3.6,3.1-4.9,5.1-4.9
		C15.1,19.9,17.1,20.3,16.7,23.1z"/>
</g>
<g>
	<path class="st2" d="M9.4,52.6l-6,0c-0.6,0-1.2-0.5-1.2-1.2c0-0.7,0.5-1.2,1.2-1.2l8.3,0c0.8,0,1.4,0.5,1.4,1.2v0.1
		c0,0.5-0.2,0.9-0.6,1.3l-7.1,7.6l6.5,0c0.6,0,1.2,0.5,1.2,1.2c0,0.6-0.5,1.2-1.2,1.2l-8.7,0c-0.8,0-1.4-0.5-1.4-1.2v-0.1
		c0-0.5,0.2-0.9,0.6-1.3L9.4,52.6z"/>
	<path class="st2" d="M28.8,61.9c-0.3,0.7-0.7,1-1.3,1h-0.1c-0.6,0-1.1-0.3-1.3-1l-3.1-8.7l-3,8.7c-0.2,0.7-0.7,1-1.3,1h-0.1
		c-0.6,0-1.1-0.3-1.3-1l-3.9-10.1c-0.2-0.6,0.1-1.4,0.8-1.5c0.6-0.2,1.3,0.1,1.5,0.8l2.9,8.2l2.8-7.9c0.3-0.7,0.8-1.1,1.5-1.1h0.1
		c0.7,0,1.2,0.4,1.4,1.1l2.8,7.9l2.9-8.2c0.2-0.7,0.9-1,1.5-0.8c0.7,0.2,1,0.9,0.8,1.5L28.8,61.9z"/>
	<path class="st2" d="M35.1,44.2c0.9,0,1.7,0.7,1.7,1.6c0,0.9-0.8,1.6-1.7,1.6c-0.9,0-1.7-0.7-1.7-1.6
		C33.4,44.8,34.2,44.2,35.1,44.2z M36.3,51.4c0-0.7-0.5-1.2-1.2-1.2c-0.7,0-1.2,0.6-1.2,1.2l0,10.3c0,0.7,0.5,1.2,1.2,1.2
		c0.7,0,1.2-0.6,1.2-1.2L36.3,51.4z"/>
	<path class="st2" d="M49.6,57.5l-9.2,0c0.3,2.1,1.9,3.4,4,3.4c1.5,0,2.3-0.4,3.2-1.3c0.5-0.5,1.1-0.7,1.6-0.3
		c0.5,0.4,0.6,1.1,0.2,1.5c-1.2,1.6-3.1,2.3-5.1,2.3c-3.6,0-6.4-2.6-6.4-6.6c0-4,2.8-6.5,6.4-6.5c3.6,0,6.2,2.5,6.2,6.5
		C50.6,57.1,50.1,57.5,49.6,57.5z M48.2,55.6c-0.3-2.1-1.8-3.3-3.8-3.3c-2.1,0-3.7,1.3-4,3.3L48.2,55.6z"/>
	<path class="st2" d="M57.8,52.4c-2.4,0-3.4,2.6-3.4,5.9l0,3.4c0,0.7-0.5,1.2-1.2,1.2c-0.7,0-1.2-0.6-1.2-1.2l0-10.3
		c0-0.7,0.5-1.2,1.2-1.2c0.7,0,1.2,0.6,1.2,1.2l0,1.7c0.6-2.2,1.8-3.1,3.5-3.1c0.9,0,2.4,0.2,2.2,1.5c-0.1,0.8-0.8,0.9-1.7,0.9
		C58.2,52.4,58,52.4,57.8,52.4z"/>
	<path class="st2" d="M67.4,52.7l-6,0c-0.6,0-1.2-0.5-1.2-1.2c0-0.7,0.5-1.2,1.2-1.2l8.3,0c0.8,0,1.4,0.5,1.4,1.2v0.1
		c0,0.5-0.2,0.9-0.6,1.3l-7.1,7.6l6.5,0c0.6,0,1.2,0.5,1.2,1.2c0,0.6-0.5,1.2-1.2,1.2l-8.7,0c-0.8,0-1.4-0.5-1.4-1.2v-0.1
		c0-0.5,0.2-0.9,0.6-1.3L67.4,52.7z"/>
	<path class="st2" d="M82.4,60.9c-0.8,1.4-2.6,2.2-4.4,2.2c-3.4,0-6.3-2.6-6.3-6.5c0-4,2.9-6.5,6.3-6.5c1.7,0,3.6,0.7,4.4,2.1l0-0.8
		c0-0.7,0.5-1.2,1.2-1.2c0.7,0,1.2,0.6,1.2,1.2l0,10.3c0,0.7-0.5,1.2-1.2,1.2c-0.7,0-1.2-0.6-1.2-1.2V60.9z M78.2,52.4
		c-2.2,0-4.1,1.6-4.1,4.1c0,2.5,1.8,4.2,4.1,4.2c2.2,0,4.1-1.5,4.1-4.2C82.4,53.9,80.2,52.4,78.2,52.4z"/>
	<path class="st2" d="M91.9,55.8l5,5.2c0.4,0.5,0.4,1.3-0.1,1.7c-0.5,0.5-1.3,0.4-1.7,0l-5.5-5.9l0,5c0,0.7-0.5,1.2-1.2,1.2
		c-0.7,0-1.2-0.6-1.2-1.2l0-17.1c0-0.7,0.5-1.2,1.2-1.2c0.7,0,1.2,0.6,1.2,1.2l0,10.1l4.1-4.1c0.5-0.5,1.2-0.5,1.7,0
		c0.5,0.5,0.5,1.3,0,1.7L91.9,55.8z"/>
	<path class="st2" d="M99.4,44.2c0.9,0,1.7,0.7,1.7,1.6c0,0.9-0.8,1.6-1.7,1.6c-0.9,0-1.7-0.7-1.7-1.6
		C97.8,44.9,98.5,44.2,99.4,44.2z M100.7,51.4c0-0.7-0.5-1.2-1.2-1.2c-0.7,0-1.2,0.6-1.2,1.2l0,10.3c0,0.7,0.5,1.2,1.2,1.2
		c0.7,0,1.2-0.6,1.2-1.2L100.7,51.4z"/>
</g>
</svg>
